<svg width="18" height="19" viewBox="0 0 18 19" fill="none" xmlns="http://www.w3.org/2000/svg">
<path d="M11.6963 4.64785L13.4885 2.8557C13.7245 2.61971 14.1071 2.61971 14.3431 2.8557L15.7663 4.27897C16.0023 4.51495 16.0023 4.89757 15.7663 5.13355L13.9742 6.9257M11.6963 4.64785L13.9742 6.9257M11.6963 4.64785L5.19337 11.1508M13.9742 6.9257L7.47122 13.4287M5.19337 11.1508L4.20611 12.1381C4.14917 12.195 4.10418 12.2628 4.0738 12.3373L2.55322 16.0688L6.28471 14.5482C6.35928 14.5178 6.42702 14.4729 6.48396 14.4159L7.47122 13.4287M5.19337 11.1508L7.47122 13.4287" stroke="#1773B0" stroke-width="1.4" stroke-linecap="round" stroke-linejoin="round"/>
</svg>
